<svg width="24" height="24" viewBox="0 0 24 24" fill="none" xmlns="http://www.w3.org/2000/svg">
  <path fill="currentColor" d="M3 4.5A1.5 1.5 0 0 1 4.5 3h15A1.5 1.5 0 0 1 21 4.5v4A1.5 1.5 0 0 1 19.5 10h-15A1.5 1.5 0 0 1 3 8.5v-4ZM5 6v1h2V6H5Zm12.5.25a.75.75 0 1 0 0 1.5.75.75 0 0 0 0-1.5Z"/>
  <path fill="currentColor" d="M3 15.5A1.5 1.5 0 0 1 4.5 14h15a1.5 1.5 0 0 1 1.5 1.5v4A1.5 1.5 0 0 1 19.5 21h-15A1.5 1.5 0 0 1 3 19.5v-4ZM5 17v1h2v-1H5Zm12.5.25a.75.75 0 1 0 0 1.5.75.75 0 0 0 0-1.5Z"/>
</svg>
